<mxfile host="app.diagrams.net" modified="2023-03-24T02:10:30.928Z" agent="Mozilla/5.0 (Windows NT 10.0; Win64; x64) AppleWebKit/537.36 (KHTML, like Gecko) Chrome/104.0.0.0 Safari/537.36" etag="dajYxCPzAp-CxWZKo4p7" version="21.1.0" type="github">
  <diagram name="PÃ¡gina-1" id="iWb8GcyTyomU2AkiOUF2">
    <mxGraphModel dx="1467" dy="753" grid="1" gridSize="10" guides="1" tooltips="1" connect="1" arrows="1" fold="1" page="1" pageScale="1" pageWidth="827" pageHeight="1169" math="0" shadow="0">
      <root>
        <mxCell id="0" />
        <mxCell id="1" parent="0" />
        <mxCell id="0-TnMIsIh6S024W-Zvq--1" value="" style="rounded=0;whiteSpace=wrap;html=1;strokeColor=#000033;strokeWidth=2;" parent="1" vertex="1">
          <mxGeometry x="80" y="80" width="570" height="660" as="geometry" />
        </mxCell>
        <mxCell id="0-TnMIsIh6S024W-Zvq--2" value="" style="rounded=0;whiteSpace=wrap;html=1;strokeColor=#000033;strokeWidth=2;" parent="1" vertex="1">
          <mxGeometry x="760" y="240" width="670" height="370" as="geometry" />
        </mxCell>
        <mxCell id="0-TnMIsIh6S024W-Zvq--4" value="" style="rounded=0;whiteSpace=wrap;html=1;dashed=1;dashPattern=8 8;" parent="1" vertex="1">
          <mxGeometry x="125" y="130" width="460" height="195" as="geometry" />
        </mxCell>
        <mxCell id="0-TnMIsIh6S024W-Zvq--5" value="" style="whiteSpace=wrap;html=1;aspect=fixed;" parent="1" vertex="1">
          <mxGeometry x="315" y="140" width="80" height="80" as="geometry" />
        </mxCell>
        <mxCell id="0-TnMIsIh6S024W-Zvq--6" value="" style="whiteSpace=wrap;html=1;aspect=fixed;" parent="1" vertex="1">
          <mxGeometry x="170" y="230" width="80" height="80" as="geometry" />
        </mxCell>
        <mxCell id="0-TnMIsIh6S024W-Zvq--7" value="" style="whiteSpace=wrap;html=1;aspect=fixed;" parent="1" vertex="1">
          <mxGeometry x="270" y="230" width="80" height="80" as="geometry" />
        </mxCell>
        <mxCell id="0-TnMIsIh6S024W-Zvq--9" value="" style="whiteSpace=wrap;html=1;aspect=fixed;" parent="1" vertex="1">
          <mxGeometry x="374" y="230" width="80" height="80" as="geometry" />
        </mxCell>
        <mxCell id="0-TnMIsIh6S024W-Zvq--10" value="" style="rounded=0;whiteSpace=wrap;html=1;dashed=1;dashPattern=8 8;" parent="1" vertex="1">
          <mxGeometry x="125" y="350" width="460" height="160" as="geometry" />
        </mxCell>
        <mxCell id="xZt78wCLkNRTX3GpAdqW-1" value="" style="whiteSpace=wrap;html=1;aspect=fixed;" vertex="1" parent="1">
          <mxGeometry x="470" y="230" width="80" height="80" as="geometry" />
        </mxCell>
        <mxCell id="xZt78wCLkNRTX3GpAdqW-2" value="" style="whiteSpace=wrap;html=1;aspect=fixed;" vertex="1" parent="1">
          <mxGeometry x="320" y="390" width="80" height="80" as="geometry" />
        </mxCell>
        <mxCell id="xZt78wCLkNRTX3GpAdqW-6" value="" style="rounded=0;whiteSpace=wrap;html=1;dashed=1;dashPattern=12 12;" vertex="1" parent="1">
          <mxGeometry x="810" y="340" width="240" height="160" as="geometry" />
        </mxCell>
        <mxCell id="xZt78wCLkNRTX3GpAdqW-7" value="" style="whiteSpace=wrap;html=1;aspect=fixed;" vertex="1" parent="1">
          <mxGeometry x="890" y="380" width="80" height="80" as="geometry" />
        </mxCell>
        <mxCell id="xZt78wCLkNRTX3GpAdqW-10" value="" style="rounded=0;whiteSpace=wrap;html=1;dashed=1;dashPattern=12 12;" vertex="1" parent="1">
          <mxGeometry x="1110" y="340" width="240" height="160" as="geometry" />
        </mxCell>
        <mxCell id="xZt78wCLkNRTX3GpAdqW-11" value="" style="strokeWidth=2;html=1;shape=mxgraph.flowchart.database;whiteSpace=wrap;" vertex="1" parent="1">
          <mxGeometry x="1190" y="367.5" width="80" height="105" as="geometry" />
        </mxCell>
        <mxCell id="xZt78wCLkNRTX3GpAdqW-12" value="" style="rounded=0;whiteSpace=wrap;html=1;dashed=1;dashPattern=8 8;" vertex="1" parent="1">
          <mxGeometry x="135" y="550" width="460" height="160" as="geometry" />
        </mxCell>
        <mxCell id="xZt78wCLkNRTX3GpAdqW-13" value="" style="strokeWidth=2;html=1;shape=mxgraph.flowchart.database;whiteSpace=wrap;" vertex="1" parent="1">
          <mxGeometry x="325" y="570" width="80" height="105" as="geometry" />
        </mxCell>
      </root>
    </mxGraphModel>
  </diagram>
</mxfile>
